<?xml version="1.0" encoding="UTF-8"?>
<svg version="1.1" xmlns="http://www.w3.org/2000/svg" width="64" height="64">
<path d="M0 0 C2.64 0 5.28 0 8 0 C8.33 4.29 8.66 8.58 9 13 C9.99 12.34 10.98 11.68 12 11 C13.32 11 14.64 11 16 11 C16 10.01 16 9.02 16 8 C25.90487568 7.66061974 34.41435497 8.16687674 44 11 C45.66304425 11.35095968 47.32886189 11.68986085 49 12 C48.67 12.99 48.34 13.98 48 15 C48.87398437 15.16628906 48.87398437 15.16628906 49.765625 15.3359375 C53.6403427 16.48751444 56.47181203 18.88305593 59 22 C59.5625 25.75 59.5625 25.75 59 29 C58.34 29.66 57.68 30.32 57 31 C56.90297467 32.88086322 56.90297467 32.88086322 57.25 35 C57.35699219 35.79277344 57.46398438 36.58554687 57.57421875 37.40234375 C58.26655666 41.62624015 59.10026226 45.81578273 60 50 C61.32 50 62.64 50 64 50 C64 52.31 64 54.62 64 57 C58.72 56.67 53.44 56.34 48 56 C48 58.64 48 61.28 48 64 C42.72 64 37.44 64 32 64 C32 61.36 32 58.72 32 56 C31.29617187 56.01160156 30.59234375 56.02320313 29.8671875 56.03515625 C21.86752752 56.10826019 13.97064195 55.66028987 6 55 C5.855625 54.071875 5.71125 53.14375 5.5625 52.1875 C5.07899889 48.99274889 5.07899889 48.99274889 4 46 C3.93259135 44.43881572 3.91485544 42.8749748 3.9375 41.3125 C3.94652344 40.50425781 3.95554688 39.69601563 3.96484375 38.86328125 C3.98224609 37.94095703 3.98224609 37.94095703 4 37 C5.485 36.505 5.485 36.505 7 36 C6.98839844 34.80761719 6.97679687 33.61523438 6.96484375 32.38671875 C6.95546408 30.82031406 6.94636407 29.25390769 6.9375 27.6875 C6.92493164 26.50897461 6.92493164 26.50897461 6.91210938 25.30664062 C6.90888672 24.54931641 6.90566406 23.79199219 6.90234375 23.01171875 C6.89710693 22.31522217 6.89187012 21.61872559 6.88647461 20.90112305 C7 19 7 19 8 16 C5.36 16 2.72 16 0 16 C0 10.72 0 5.44 0 0 Z M48 53 C48 53.33 48 53.66 48 54 C50.64 54 53.28 54 56 54 C56 53.67 56 53.34 56 53 C53.36 53 50.72 53 48 53 Z " fill="#070707" transform="translate(0,0)"/>
<path d="M0 0 C5.625 -0.25 5.625 -0.25 9 2 C12.1204027 1.65328859 15.02893144 0.99232431 18.0625 0.1875 C22.01334759 -0.06468176 23.056998 1.50976754 26 4 C29.63255984 4.53159412 31.86825576 3.85584844 35 2 C35.495 3.485 35.495 3.485 36 5 C36.66 5 37.32 5 38 5 C38.66 9.29 39.32 13.58 40 18 C30.36137832 20.52816306 20.88563297 20.18269137 11 20 C10.67 15.05 10.34 10.1 10 5 C8.68 5 7.36 5 6 5 C6.33 9.95 6.66 14.9 7 20 C5.68 20 4.36 20 3 20 C2.67 17.03 2.34 14.06 2 11 C0.68 11 -0.64 11 -2 11 C-1.67 13.64 -1.34 16.28 -1 19 C-2.32 19 -3.64 19 -5 19 C-6.17571451 15.32589215 -6.07366746 11.83070817 -6 8 C-5.01 8 -4.02 8 -3 8 C-3 6.02 -3 4.04 -3 2 C-2.01 2 -1.02 2 0 2 C0 1.34 0 0.68 0 0 Z " fill="#F9F9F9" transform="translate(15,31)"/>
<path d="M0 0 C0.68320312 0.59296875 1.36640625 1.1859375 2.0703125 1.796875 C1.1953125 7.671875 1.1953125 7.671875 0.0703125 8.796875 C-2.2603093 9.14866697 -4.59403817 9.48017679 -6.9296875 9.796875 C-7.6103125 10.065 -8.2909375 10.333125 -8.9921875 10.609375 C-10.9296875 10.796875 -10.9296875 10.796875 -13.8046875 8.796875 C-16.74318997 6.48342933 -16.74318997 6.48342933 -19.9921875 6.984375 C-20.9615625 7.2525 -21.9309375 7.520625 -22.9296875 7.796875 C-25.6171875 8.484375 -25.6171875 8.484375 -27.9296875 8.796875 C-28.9196875 8.136875 -29.9096875 7.476875 -30.9296875 6.796875 C-33.24628915 6.43348651 -35.53209497 6.29425382 -37.87109375 6.140625 C-39.9296875 5.796875 -39.9296875 5.796875 -41.9296875 3.796875 C-41.9765625 1.703125 -41.9765625 1.703125 -41.6796875 -0.703125 C-41.59203125 -1.4971875 -41.504375 -2.29125 -41.4140625 -3.109375 C-40.9296875 -5.203125 -40.9296875 -5.203125 -38.9296875 -7.203125 C-25.11495527 -10.27083767 -11.47976202 -8.63278104 0 0 Z " fill="#F3F3F3" transform="translate(52.9296875,21.203125)"/>
<path d="M0 0 C3.93774177 -0.36630156 5.56539771 -0.30233203 8.875 2 C9.926875 2.99 9.926875 2.99 11 4 C9.35 4.33 7.7 4.66 6 5 C6.33 9.95 6.66 14.9 7 20 C5.68 20 4.36 20 3 20 C2.67 17.03 2.34 14.06 2 11 C0.68 11 -0.64 11 -2 11 C-1.67 13.64 -1.34 16.28 -1 19 C-2.32 19 -3.64 19 -5 19 C-6.17571451 15.32589215 -6.07366746 11.83070817 -6 8 C-5.01 8 -4.02 8 -3 8 C-3 6.02 -3 4.04 -3 2 C-2.01 2 -1.02 2 0 2 C0 1.34 0 0.68 0 0 Z " fill="#F2F2F2" transform="translate(15,31)"/>
<path d="M0 0 C3.25696479 0.41755959 4.63443291 0.63443291 7 3 C6.625 5.125 6.625 5.125 6 7 C3.6875 7.6875 3.6875 7.6875 1 8 C-0.875 6.8125 -0.875 6.8125 -2 5 C-1.74853421 2.86254078 -1.54074221 1.54074221 0 0 Z " fill="#101010" transform="translate(41,20)"/>
<path d="M0 0 C1.32 0 2.64 0 4 0 C4.95261487 4.76307437 5.08333357 9.1666528 5 14 C4.67 14 4.34 14 4 14 C3.67 12.02 3.34 10.04 3 8 C2.01 8 1.02 8 0 8 C0 5.36 0 2.72 0 0 Z " fill="#292929" transform="translate(21,36)"/>
</svg>
